<?xml version="1.0" encoding="UTF-8"?>
<svg width="193px" height="26px" viewBox="0 0 193 26" version="1.1" xmlns="http://www.w3.org/2000/svg" xmlns:xlink="http://www.w3.org/1999/xlink">
    <title>Group</title>
    <g id="Page-1" stroke="none" stroke-width="1" fill="none" fill-rule="evenodd">
        <g id="Desktop-HD" transform="translate(-135.000000, -146.000000)" fill-rule="nonzero">
            <g id="Group" transform="translate(135.000000, 146.000000)">
                <path d="M26.32,-1.42108547e-14 L26.32,25.253 L-1.59872116e-14,25.253 L-1.59872116e-14,-1.42108547e-14 L26.32,-1.42108547e-14 Z M22.843,2.263 L3.423,2.263 L3.423,7.807 L9.678,7.807 L9.678,23.34 L16.59,23.34 L16.59,7.807 L22.843,7.807 L22.843,2.263 Z" id="Combined-Shape" fill="#000000"></path>
                <path d="M56.288,-1.42108547e-14 L56.288,25.253 L29.968,25.253 L29.968,-1.42108547e-14 L56.288,-1.42108547e-14 Z M45.854,3.226 L40.325,3.226 L40.325,9.889 L33.612,9.889 L33.612,15.399 L40.325,15.399 L40.325,22.092 L45.854,22.092 L45.854,15.399 L52.54,15.399 L52.54,9.889 L45.854,9.889 L45.854,3.226 Z" id="Combined-Shape" fill="#CC2132"></path>
                <path d="M60,0 L83,0 L83,5.8985462 L75.287343,5.8985462 L75.287343,24 L67.7118947,24 L67.7118947,5.8985462 L60,5.8985462 L60,0 Z M85,0 L93,0 L93,24 L85,24 L85,0 Z M97,16.3738718 L104.15294,16.3738718 C104.306701,17.5367503 104.617994,18.1985572 105.090585,18.806031 C105.857887,19.7817622 106.95457,20.2692505 108.382143,20.2692505 C109.447924,20.2692505 110.267233,20.0217332 110.846855,19.5236802 C111.4212,19.0301548 111.711388,18.4506022 111.711388,17.7857768 C111.711388,17.1564188 111.434014,16.593468 110.88228,16.0999426 C110.329039,15.613209 109.046937,15.1491141 107.037481,14.7069033 C103.745169,13.9681246 101.39804,12.9856017 99.9960943,11.7578255 C98.5828423,10.5436325 97.8773469,8.98382082 97.8773469,7.08140904 C97.8773469,5.84155876 98.2376319,4.67339793 98.9612169,3.5663618 C99.684802,2.46083492 100.77018,1.58999668 102.220365,0.953847083 C103.672057,0.319961363 105.663423,0 108.189187,0 C111.291558,0 113.654516,0.57728878 115.282582,1.72809321 C116.911402,2.87814302 117.879951,4.91789671 118.189736,7.43080081 L111.103125,7.43080081 C110.914691,6.35017658 110.523503,5.7668508 109.925791,5.27332549 C109.325819,4.77376317 108.501233,4.52775514 107.446759,4.52775514 C106.579211,4.52775514 105.924969,4.71490235 105.484788,5.08315977 C105.046869,5.45292644 104.828286,5.90268345 104.828286,6.43016692 C104.828286,6.8059706 105.006167,7.14630686 105.370221,7.45570346 C105.720707,7.77717408 106.558106,8.07600592 107.881664,8.35068973 C111.163423,9.05852878 113.512813,9.77014096 114.931342,10.4862809 C116.350624,11.2009116 117.383993,12.0958979 118.029944,13.1644481 C118.675894,14.2345075 119,15.4253071 119,16.7338284 C119,18.2860938 118.570371,19.7183736 117.708853,21.0231217 C116.848842,22.3301337 115.647389,23.3209575 114.104495,23.9933291 C112.560093,24.6641915 110.612443,25 108.263807,25 C104.139372,25 101.284226,24.2068882 99.696108,22.6267017 C98.1064821,21.0442513 97.2080307,18.8098041 97,16.3738718 L97,16.3738718 Z M120,16.3738718 L127.153185,16.3738718 C127.307705,17.5367503 127.62127,18.1985572 128.093877,18.806031 C128.861205,19.7817622 129.957926,20.2692505 131.385548,20.2692505 C132.449858,20.2692505 133.269949,20.0217332 133.848837,19.5236802 C134.42471,19.0301548 134.712646,18.4506022 134.712646,17.7857768 C134.712646,17.1564188 134.437524,16.593468 133.88351,16.0999426 C133.331757,15.613209 132.04735,15.1491141 130.039333,14.7069033 C126.746154,13.9681246 124.399698,12.9856017 122.996197,11.7578255 C121.582896,10.5436325 120.877377,8.98382082 120.877377,7.08140904 C120.877377,5.84155876 121.237674,4.67339793 121.961284,3.5663618 C122.684894,2.46083492 123.770309,1.58999668 125.222051,0.953847083 C126.673039,0.319961363 128.662966,0 131.189571,0 C134.291294,0 136.65584,0.57728878 138.28547,1.72809321 C139.912084,2.87814302 140.880666,4.91789671 141.190462,7.43080081 L134.106623,7.43080081 C133.918183,6.35017658 133.525474,5.7668508 132.927742,5.27332549 C132.328502,4.77376317 131.503889,4.52775514 130.450132,4.52775514 C129.580293,4.52775514 128.926782,4.71490235 128.48734,5.08315977 C128.048652,5.45292644 127.829308,5.90268345 127.829308,6.43016692 C127.829308,6.8059706 128.008703,7.14630686 128.371261,7.45570346 C128.72176,7.77717408 129.559187,8.07600592 130.88279,8.35068973 C134.164662,9.05852878 136.514133,9.77014096 137.934217,10.4862809 C139.353548,11.2009116 140.386953,12.0958979 141.029911,13.1644481 C141.675883,14.2345075 142,15.4253071 142,16.7338284 C142,18.2860938 141.570357,19.7183736 140.710316,21.0231217 C139.848768,22.3301337 138.649536,23.3209575 137.103574,23.9933291 C135.560626,24.6641915 133.614417,25 131.264947,25 C127.139617,25 124.283619,24.2068882 122.695447,22.6267017 C121.108781,21.0442513 120.209545,18.8098041 120,16.3738718 L120,16.3738718 Z M154.354632,7.62753081 C155.256479,6.54148327 156.453232,6 157.944147,6 C159.497617,6 160.729371,6.53378081 161.637176,7.60057218 C162.54647,8.66582306 163,10.3580546 163,12.671875 C163,15.4247359 162.566577,17.3341769 161.696753,18.3978873 C160.825439,19.4677597 159.595174,20 158.008192,20 C156.465147,20 155.243074,19.4538952 154.345696,18.3663072 C153.446828,17.2787192 153,15.4917474 153,13.009243 C153.000745,10.5044014 153.451296,8.70972711 154.354632,7.62753081 L154.354632,7.62753081 Z M146.662663,19.5772586 C147.769854,21.4592955 149.217835,22.8342238 151.000601,23.6997796 C152.783366,24.5660901 155.03528,25 157.756343,25 C160.431617,25 162.669269,24.5004377 164.464044,23.495276 C166.257319,22.4886051 167.626483,21.0827372 168.57679,19.2708805 C169.527098,17.4612877 170,15.1438317 170,12.315494 C170,8.43218932 168.915328,5.40764889 166.742231,3.24489118 C164.569134,1.08364273 161.475754,0 157.460592,0 C153.54151,0 150.486413,1.10099912 148.291548,3.29696037 C146.095181,5.49141236 145,8.56726735 145,12.5177337 C145,15.3415437 145.554722,17.696731 146.662663,19.5772586 L146.662663,19.5772586 Z M170,0 L193,0 L193,5.8985462 L185.288361,5.8985462 L185.288361,24 L177.713164,24 L177.713164,5.8985462 L170,5.8985462 L170,0 L170,0 Z" id="Shape" fill="#000000"></path>
            </g>
        </g>
    </g>
</svg>